<svg width="36" height="36" viewBox="0 0 36 36" fill="none" xmlns="http://www.w3.org/2000/svg">
<rect width="36" height="36" rx="18" fill="#F3F3F3"/>
<g clip-path="url(#clip0_27_381)">
<path d="M7.36259 21.7193C7.76161 21.6092 7.99583 21.1965 7.88575 20.7975C5.84621 13.4062 12.1816 6.36917 19.7649 7.65316C20.1728 7.72225 20.5598 7.44742 20.6289 7.03932C20.698 6.63121 20.4232 6.24428 20.0151 6.17519C11.3255 4.70373 4.11701 12.775 6.44075 21.1962C6.55107 21.5961 6.96447 21.8292 7.36259 21.7193Z" fill="#188E6B"/>
<path d="M29.8253 15.9854C29.7562 15.5773 29.3694 15.3025 28.9612 15.3716C28.5531 15.4407 28.2783 15.8276 28.3474 16.2357C29.6293 23.8063 22.6001 30.1554 15.203 28.1144C14.8041 28.0042 14.3913 28.2384 14.2811 28.6375C14.171 29.0365 14.4052 29.4493 14.8042 29.5594C23.2187 31.8812 31.2976 24.68 29.8253 15.9854Z" fill="#188E6B"/>
<path d="M25.8715 14.2509C28.1445 14.2509 29.9937 12.4017 29.9937 10.1287C29.9937 7.85566 28.1445 6.00641 25.8715 6.00641C23.5985 6.00641 21.7492 7.85566 21.7492 10.1287C21.7492 12.4017 23.5984 14.2509 25.8715 14.2509ZM25.8715 7.50541C27.318 7.50541 28.4947 8.68223 28.4947 10.1287C28.4947 11.5751 27.318 12.7519 25.8715 12.7519C24.425 12.7519 23.2482 11.5751 23.2482 10.1287C23.2482 8.68223 24.425 7.50541 25.8715 7.50541Z" fill="#188E6B"/>
<path d="M10.1319 22.4955C8.27217 22.4955 6.75916 24.0085 6.75916 25.8683C6.75916 27.728 8.27217 29.241 10.1319 29.241C11.9917 29.241 13.5047 27.728 13.5047 25.8683C13.5047 24.0085 11.9917 22.4955 10.1319 22.4955ZM10.1319 27.742C9.09873 27.742 8.25816 26.9014 8.25816 25.8683C8.25816 24.8351 9.09873 23.9945 10.1319 23.9945C11.1651 23.9945 12.0057 24.8351 12.0057 25.8683C12.0057 26.9014 11.1651 27.742 10.1319 27.742Z" fill="#188E6B"/>
<path d="M15.0037 22.4955C15.0037 22.9094 15.3393 23.245 15.7532 23.245C16.1671 23.245 16.5027 22.9094 16.5027 22.4955V21.3712H18.7512C19.1652 21.3712 19.5007 21.0356 19.5007 20.6217C19.5007 20.2078 19.1652 19.8722 18.7512 19.8722H16.5027V18.748H18.7512C20.4043 18.748 21.7492 17.4031 21.7492 15.75C21.7492 14.0968 20.4043 12.752 18.7512 12.752H15.7532C15.3393 12.752 15.0037 13.0875 15.0037 13.5015V19.8722H14.2542C13.8403 19.8722 13.5047 20.2078 13.5047 20.6217C13.5047 21.0356 13.8403 21.3712 14.2542 21.3712H15.0037V22.4955ZM20.2502 15.75C20.2502 16.5765 19.5778 17.249 18.7512 17.249H16.5027V14.251H18.7512C19.5777 14.251 20.2502 14.9234 20.2502 15.75Z" fill="#188E6B"/>
</g>
<defs>
<clipPath id="clip0_27_381">
<rect width="24" height="24" fill="white" transform="translate(6 6)"/>
</clipPath>
</defs>
</svg>
