<svg width="127" height="33" viewBox="0 0 127 33" fill="none" xmlns="http://www.w3.org/2000/svg">
<path d="M13.9432 2.04243L25.8862 5.54142V18.6846C25.8862 19.9192 25.378 21.3468 24.0929 22.9484C23.1084 24.1754 21.6943 25.4692 19.8439 26.7773C17.3579 28.5346 14.8914 29.7559 13.9432 30.2008C12.995 29.7559 10.5283 28.5346 8.04239 26.7773C6.19197 25.4692 4.77789 24.1754 3.7934 22.9485L13.9432 2.04243ZM13.9432 2.04243L2 5.54146V18.6846C2 19.9192 2.5082 21.3467 3.79336 22.9485L13.9432 2.04243ZM1.25277 5.76038L1.2529 5.76034L1.25277 5.76038Z" stroke="#188E6B" stroke-width="4" stroke-linejoin="round"/>
<path d="M13.8126 19.4838H11.7126L9.6021 15.6087V19.4838H7.7226V10.8175H9.6021V14.4573L11.6076 10.8175H13.7076L11.3766 15.0268L13.8126 19.4838Z" fill="#188E6B"/>
<path d="M18.2946 10.8175H20.1636V19.4838H18.2946V16.1534H16.2261V19.4838H14.3466V10.8175H16.2261V14.024H18.2946V10.8175Z" fill="#188E6B"/>
<path d="M41.6868 19.4838H39.4608L35.9608 14.8918V19.4838H34.0288V9.68376H35.9608V14.0098L39.3208 9.68376H41.5468L37.9208 14.4438L41.6868 19.4838ZM46.8561 9.68376C47.7988 9.68376 48.5921 10.0011 49.2361 10.6358C49.8801 11.2704 50.2021 12.0498 50.2021 12.9738C50.2021 13.8978 49.8801 14.6771 49.2361 15.3118C48.5921 15.9464 47.7988 16.2638 46.8561 16.2638H45.1341V19.4838H43.2021V9.68376H46.8561ZM46.8561 14.4578C47.2668 14.4578 47.6074 14.3178 47.8781 14.0378C48.1488 13.7484 48.2841 13.3938 48.2841 12.9738C48.2841 12.5444 48.1488 12.1898 47.8781 11.9098C47.6074 11.6298 47.2668 11.4898 46.8561 11.4898H45.1341V14.4578H46.8561ZM53.9519 17.6358H58.0819V19.4838H52.0199V9.68376H58.0119V11.5318H53.9519V13.6178H57.6619V15.4378H53.9519V17.6358ZM67.5357 17.6358H68.5857V21.3598H66.6537V19.4838H61.2357V21.3598H59.3037V17.6358H60.2557C60.7971 16.8798 61.0677 15.7738 61.0677 14.3178V9.68376H67.5357V17.6358ZM62.3277 17.6358H65.6037V11.4898H62.9997V14.3458C62.9997 15.7644 62.7757 16.8611 62.3277 17.6358ZM76.1048 19.4838V13.5058L71.9048 19.4838H70.4348V9.68376H72.3668V15.6758L76.5668 9.68376H78.0368V19.4838H76.1048ZM86.8967 9.68376V11.5318H84.2507V19.4838H82.3187V11.5318H79.6867V9.68376H86.8967ZM94.1244 19.4838L93.5364 17.7198H89.6304L89.0424 19.4838H86.9564L90.3864 9.68376H92.7804L96.2244 19.4838H94.1244ZM90.2464 15.9138H92.9344L91.5904 11.9098L90.2464 15.9138Z" fill="#454545"/>
<path d="M107.368 9.68376H109.286V19.4838H107.368V15.4238H103.728V19.4838H101.796V9.68376H103.728V13.5758H107.368V9.68376ZM113.598 17.6358H117.728V19.4838H111.666V9.68376H117.658V11.5318H113.598V13.6178H117.308V15.4378H113.598V17.6358ZM126.132 9.68376V11.5318H123.486V19.4838H121.554V11.5318H118.922V9.68376H126.132Z" fill="#188E6B"/>
</svg>
